<?xml version="1.0" encoding="iso-8859-1"?>
<!-- Generator: Adobe Illustrator 16.0.0, SVG Export Plug-In . SVG Version: 6.00 Build 0)  -->
<!DOCTYPE svg PUBLIC "-//W3C//DTD SVG 1.1//EN" "http://www.w3.org/Graphics/SVG/1.1/DTD/svg11.dtd">
<svg version="1.1" id="Capa_1" xmlns="http://www.w3.org/2000/svg" xmlns:xlink="http://www.w3.org/1999/xlink" x="0px" y="0px"
	 width="32px" height="32px" viewBox="0 0 32 32" style="enable-background:new 0 0 32 32;" xml:space="preserve">
<g>
	<path d="M22.07,5.458V1.435L16.175,0.01V0l-0.02,0.005L16.137,0v0.01L9.956,1.492v4.052L8.275,5.865v25.203l7.9,0.932l7.55-0.896
		V5.777L22.07,5.458z M9.135,7.273l5.833-1.003v1.254l-5.833,0.92V7.273z M9.135,9.662l5.833-0.834v1.254l-5.833,0.751V9.662z
		 M9.122,12.09l5.831-0.663v1.254l-5.831,0.58V12.09z M9.122,14.479l5.831-0.494v1.254l-5.831,0.41V14.479z M14.953,26.031
		l-5.831-0.305v-1.17l5.831,0.221V26.031z M14.953,23.475L9.122,23.34v-1.171l5.831,0.051V23.475z M14.968,20.67l-5.833,0.053
		v-1.172l5.833-0.135V20.67z M14.968,18.111l-5.833,0.222v-1.171l5.833-0.305V18.111z M17.378,6.332l5.578,0.963v1.203l-5.578-0.88
		V6.332z M22.97,9.675v1.203l-5.576-0.719V8.874L22.97,9.675z M17.343,11.557l5.582,0.63v1.204l-5.582-0.548V11.557z M17.36,14.099
		l5.581,0.468v1.204l-5.581-0.386V14.099z M22.97,17.218v1.203l-5.576-0.206V16.93L22.97,17.218z M17.394,22.249l5.576-0.052V23.4
		l-5.576,0.134V22.249z M22.985,25.777l-5.573,0.295v-1.285l5.573-0.213V25.777z M22.985,20.799l-5.573-0.045V19.47l5.573,0.125
		V20.799z"/>
</g>
<g>
</g>
<g>
</g>
<g>
</g>
<g>
</g>
<g>
</g>
<g>
</g>
<g>
</g>
<g>
</g>
<g>
</g>
<g>
</g>
<g>
</g>
<g>
</g>
<g>
</g>
<g>
</g>
<g>
</g>
</svg>
